chunked-regular.ufo
<glyph name="A" format="1">
  <advance width="823"/>
  <unicode hex="0041"/>
  <outline>
    <contour>
      <point x="721" y="73" type="line"/>
      <point x="651" y="73" type="line"/>
      <point x="474" y="699" type="line"/>
      <point x="178" y="699" type="line"/>
      <point x="178" y="629" type="line"/>
      <point x="252" y="629" type="line"/>
      <point x="83" y="73" type="line"/>
      <point x="4" y="73" type="line"/>
      <point x="4" y="0" type="line"/>
      <point x="255" y="0" type="line"/>
      <point x="255" y="73" type="line"/>
      <point x="177" y="73" type="line"/>
      <point x="240" y="279" type="line"/>
      <point x="496" y="279" type="line"/>
      <point x="554" y="73" type="line"/>
      <point x="459" y="73" type="line"/>
      <point x="459" y="0" type="line"/>
      <point x="721" y="0" type="line"/>
    </contour>
    <contour>
      <point x="344" y="629" type="line"/>
      <point x="399" y="629" type="line"/>
      <point x="474" y="360" type="line"/>
      <point x="263" y="360" type="line"/>
    </contour>
  </outline>
</glyph>
<glyph name="B" format="1">
  <advance width="632"/>
  <unicode hex="0042"/>
  <outline>
    <contour>
      <point x="310" y="0" type="line" smooth="yes"/>
      <point x="495" y="0"/>
      <point x="582" y="85"/>
      <point x="582" y="201" type="curve" smooth="yes"/>
      <point x="582" y="331"/>
      <point x="480" y="372"/>
      <point x="435" y="382" type="curve"/>
      <point x="481" y="405"/>
      <point x="543" y="453"/>
      <point x="543" y="540" type="curve" smooth="yes"/>
      <point x="543" y="654"/>
      <point x="448" y="699"/>
      <point x="328" y="699" type="curve" smooth="yes"/>
      <point x="57" y="699" type="line"/>
      <point x="57" y="629" type="line"/>
      <point x="114" y="629" type="line"/>
      <point x="114" y="73" type="line"/>
      <point x="57" y="73" type="line"/>
      <point x="57" y="0" type="line"/>
    </contour>
    <contour>
      <point x="205" y="73" type="line"/>
      <point x="205" y="332" type="line"/>
      <point x="351" y="332" type="line" smooth="yes"/>
      <point x="423" y="332"/>
      <point x="483" y="275"/>
      <point x="483" y="202" type="curve" smooth="yes"/>
      <point x="483" y="129"/>
      <point x="431" y="73"/>
      <point x="342" y="73" type="curve" smooth="yes"/>
    </contour>
    <contour>
      <point x="352" y="629" type="line" smooth="yes"/>
      <point x="405" y="629"/>
      <point x="452" y="591"/>
      <point x="452" y="523" type="curve" smooth="yes"/>
      <point x="452" y="455"/>
      <point x="405" y="410"/>
      <point x="349" y="410" type="curve" smooth="yes"/>
      <point x="206" y="410" type="line"/>
      <point x="206" y="629" type="line"/>
    </contour>
  </outline>
</glyph>
<glyph name="D" format="1">
  <advance width="698"/>
  <unicode hex="0044"/>
  <outline>
    <contour>
      <point x="286" y="0" type="line" smooth="yes"/>
      <point x="516" y="0"/>
      <point x="653" y="168"/>
      <point x="653" y="359" type="curve" smooth="yes"/>
      <point x="653" y="550"/>
      <point x="516" y="699"/>
      <point x="290" y="699" type="curve" smooth="yes"/>
      <point x="20" y="699" type="line"/>
      <point x="20" y="629" type="line"/>
      <point x="92" y="629" type="line"/>
      <point x="92" y="73" type="line"/>
      <point x="20" y="73" type="line"/>
      <point x="20" y="0" type="line"/>
    </contour>
    <contour>
      <point x="551" y="190"/>
      <point x="447" y="73"/>
      <point x="303" y="73" type="curve" smooth="yes"/>
      <point x="189" y="73" type="line"/>
      <point x="189" y="629" type="line"/>
      <point x="303" y="629" type="line" smooth="yes"/>
      <point x="447" y="629"/>
      <point x="551" y="527"/>
      <point x="551" y="359" type="curve" smooth="yes"/>
    </contour>
  </outline>
</glyph>
<glyph name="E" format="1">
  <advance width="653"/>
  <unicode hex="0045"/>
  <outline>
    <contour>
      <point x="89" y="629" type="line"/>
      <point x="144" y="629" type="line"/>
      <point x="144" y="73" type="line"/>
      <point x="89" y="73" type="line"/>
      <point x="89" y="0" type="line"/>
      <point x="585" y="0" type="line"/>
      <point x="585" y="161" type="line"/>
      <point x="499" y="161" type="line"/>
      <point x="499" y="73" type="line"/>
      <point x="238" y="73" type="line"/>
      <point x="238" y="314" type="line"/>
      <point x="458" y="314" type="line"/>
      <point x="458" y="395" type="line"/>
      <point x="238" y="395" type="line"/>
      <point x="238" y="629" type="line"/>
      <point x="489" y="629" type="line"/>
      <point x="489" y="531" type="line"/>
      <point x="575" y="531" type="line"/>
      <point x="575" y="699" type="line"/>
      <point x="89" y="699" type="line"/>
    </contour>
  </outline>
</glyph>
<glyph name="H" format="1">
  <advance width="768"/>
  <unicode hex="0048"/>
  <outline>
    <contour>
      <point x="88" y="629" type="line"/>
      <point x="143" y="629" type="line"/>
      <point x="143" y="73" type="line"/>
      <point x="88" y="73" type="line"/>
      <point x="88" y="0" type="line"/>
      <point x="294" y="0" type="line"/>
      <point x="294" y="73" type="line"/>
      <point x="232" y="73" type="line"/>
      <point x="232" y="314" type="line"/>
      <point x="577" y="314" type="line"/>
      <point x="577" y="73" type="line"/>
      <point x="518" y="73" type="line"/>
      <point x="518" y="0" type="line"/>
      <point x="723" y="0" type="line"/>
      <point x="723" y="73" type="line"/>
      <point x="665" y="73" type="line"/>
      <point x="665" y="629" type="line"/>
      <point x="723" y="629" type="line"/>
      <point x="723" y="699" type="line"/>
      <point x="518" y="699" type="line"/>
      <point x="518" y="629" type="line"/>
      <point x="577" y="629" type="line"/>
      <point x="577" y="404" type="line"/>
      <point x="232" y="404" type="line"/>
      <point x="232" y="629" type="line"/>
      <point x="294" y="629" type="line"/>
      <point x="294" y="699" type="line"/>
      <point x="88" y="699" type="line"/>
    </contour>
  </outline>
</glyph>
<glyph name="L" format="1">
  <advance width="610"/>
  <unicode hex="004C"/>
  <outline>
    <contour>
      <point x="89" y="629" type="line"/>
      <point x="144" y="629" type="line"/>
      <point x="144" y="73" type="line"/>
      <point x="89" y="73" type="line"/>
      <point x="89" y="0" type="line"/>
      <point x="585" y="0" type="line"/>
      <point x="585" y="161" type="line"/>
      <point x="499" y="161" type="line"/>
      <point x="499" y="73" type="line"/>
      <point x="238" y="73" type="line"/>
      <point x="238" y="629" type="line"/>
      <point x="291" y="629" type="line"/>
      <point x="291" y="699" type="line"/>
      <point x="89" y="699" type="line"/>
    </contour>
  </outline>
</glyph>
<glyph name="M" format="1">
  <advance width="1008"/>
  <unicode hex="004D"/>
  <outline>
    <contour>
      <point x="642" y="629" type="line"/>
      <point x="642" y="464" type="line"/>
      <point x="643" y="73" type="line"/>
      <point x="586" y="73" type="line"/>
      <point x="586" y="0" type="line"/>
      <point x="799" y="0" type="line"/>
      <point x="799" y="73" type="line"/>
      <point x="744" y="73" type="line"/>
      <point x="744" y="629" type="line"/>
      <point x="799" y="629" type="line"/>
      <point x="799" y="699" type="line"/>
      <point x="541" y="699" type="line"/>
      <point x="420" y="142" type="line" smooth="yes"/>
      <point x="266" y="699" type="line"/>
      <point x="26" y="699" type="line"/>
      <point x="26" y="629" type="line"/>
      <point x="79" y="629" type="line"/>
      <point x="79" y="73" type="line"/>
      <point x="25" y="73" type="line"/>
      <point x="25" y="0" type="line"/>
      <point x="234" y="0" type="line"/>
      <point x="234" y="73" type="line"/>
      <point x="177" y="73" type="line"/>
      <point x="177" y="629" type="line"/>
      <point x="190" y="629" type="line"/>
      <point x="193" y="579"/>
      <point x="236" y="416"/>
      <point x="241" y="399" type="curve" smooth="yes"/>
      <point x="360" y="0" type="line"/>
      <point x="459" y="0" type="line"/>
      <point x="564" y="389" type="line" smooth="yes"/>
      <point x="570" y="412"/>
      <point x="620" y="584"/>
      <point x="628" y="629" type="curve"/>
    </contour>
  </outline>
</glyph>
<glyph name="O" format="1">
  <advance width="740"/>
  <unicode hex="004F"/>
  <outline>
    <contour>
      <point x="593" y="-18"/>
      <point x="706" y="120"/>
      <point x="706" y="346" type="curve" smooth="yes"/>
      <point x="706" y="571"/>
      <point x="605" y="718"/>
      <point x="366" y="718" type="curve" smooth="yes"/>
      <point x="164" y="718"/>
      <point x="24" y="569"/>
      <point x="24" y="353" type="curve"/>
      <point x="24" y="103"/>
      <point x="169" y="-18"/>
      <point x="373" y="-18" type="curve" smooth="yes"/>
    </contour>
    <contour>
      <point x="262" y="66"/>
      <point x="135" y="164"/>
      <point x="135" y="356" type="curve" smooth="yes"/>
      <point x="135" y="536"/>
      <point x="252" y="641"/>
      <point x="362" y="639" type="curve" smooth="yes"/>
      <point x="498" y="639"/>
      <point x="608" y="522"/>
      <point x="608" y="346" type="curve" smooth="yes"/>
      <point x="608" y="164"/>
      <point x="489" y="66"/>
      <point x="376" y="66" type="curve" smooth="yes"/>
    </contour>
  </outline>
</glyph>
<glyph name="P" format="1">
  <advance width="640"/>
  <unicode hex="0050"/>
  <outline>
    <contour>
      <point x="89" y="629" type="line"/>
      <point x="145" y="629" type="line"/>
      <point x="145" y="73" type="line"/>
      <point x="89" y="73" type="line"/>
      <point x="89" y="0" type="line"/>
      <point x="299" y="0" type="line"/>
      <point x="299" y="73" type="line"/>
      <point x="238" y="73" type="line"/>
      <point x="238" y="314" type="line"/>
      <point x="369" y="314" type="line" smooth="yes"/>
      <point x="525" y="314"/>
      <point x="597" y="396"/>
      <point x="597" y="508" type="curve" smooth="yes"/>
      <point x="597" y="626"/>
      <point x="528" y="699"/>
      <point x="383" y="699" type="curve" smooth="yes"/>
      <point x="89" y="699" type="line"/>
    </contour>
    <contour>
      <point x="336" y="629" type="line" smooth="yes"/>
      <point x="432" y="629"/>
      <point x="522" y="592"/>
      <point x="522" y="509" type="curve" smooth="yes"/>
      <point x="522" y="437"/>
      <point x="424" y="402"/>
      <point x="331" y="402" type="curve" smooth="yes"/>
      <point x="238" y="402" type="line"/>
      <point x="238" y="629" type="line"/>
    </contour>
  </outline>
</glyph>
<glyph name="T" format="1">
  <advance width="701"/>
  <unicode hex="0054"/>
  <outline>
    <contour>
      <point x="45" y="699" type="line"/>
      <point x="45" y="500" type="line"/>
      <point x="127" y="500" type="line"/>
      <point x="127" y="628" type="line"/>
      <point x="302" y="628" type="line"/>
      <point x="302" y="74" type="line"/>
      <point x="224" y="74" type="line"/>
      <point x="224" y="0" type="line"/>
      <point x="481" y="0" type="line"/>
      <point x="481" y="74" type="line"/>
      <point x="403" y="74" type="line"/>
      <point x="403" y="628" type="line"/>
      <point x="571" y="628" type="line"/>
      <point x="571" y="500" type="line"/>
      <point x="656" y="500" type="line"/>
      <point x="656" y="699" type="line"/>
    </contour>
  </outline>
</glyph>
<glyph name="a" format="1">
  <advance width="560"/>
  <unicode hex="0061"/>
  <outline>
    <contour>
      <point x="93" y="415" type="line"/>
      <point x="114" y="427"/>
      <point x="179" y="452"/>
      <point x="246" y="452" type="curve" smooth="yes"/>
      <point x="325" y="452"/>
      <point x="359" y="415"/>
      <point x="359" y="346" type="curve" smooth="yes"/>
      <point x="359" y="276" type="line"/>
      <point x="354" y="282"/>
      <point x="318" y="332"/>
      <point x="243" y="332" type="curve" smooth="yes"/>
      <point x="130" y="332"/>
      <point x="35" y="261"/>
      <point x="35" y="148" type="curve" smooth="yes"/>
      <point x="35" y="47"/>
      <point x="124" y="-19"/>
      <point x="211" y="-19" type="curve" smooth="yes"/>
      <point x="320" y="-19"/>
      <point x="367" y="67"/>
      <point x="367" y="67" type="curve"/>
      <point x="391" y="0" type="line"/>
      <point x="532" y="0" type="line"/>
      <point x="532" y="67" type="line"/>
      <point x="451" y="67" type="line"/>
      <point x="451" y="323" type="line" smooth="yes"/>
      <point x="451" y="467"/>
      <point x="394" y="529"/>
      <point x="254" y="529" type="curve" smooth="yes"/>
      <point x="173" y="529"/>
      <point x="109" y="505"/>
      <point x="69" y="481" type="curve"/>
    </contour>
    <contour>
      <point x="181" y="65"/>
      <point x="122" y="94"/>
      <point x="122" y="162" type="curve" smooth="yes"/>
      <point x="122" y="221"/>
      <point x="162" y="262"/>
      <point x="251" y="262" type="curve" smooth="yes"/>
      <point x="314" y="262"/>
      <point x="345" y="236"/>
      <point x="359" y="221" type="curve"/>
      <point x="359" y="122" type="line"/>
      <point x="350" y="94"/>
      <point x="303" y="65"/>
      <point x="249" y="65" type="curve" smooth="yes"/>
    </contour>
  </outline>
</glyph>
<glyph name="b" format="1">
  <advance width="656"/>
  <unicode hex="0062"/>
  <outline>
    <contour>
      <point x="31" y="750" type="line"/>
      <point x="31" y="684" type="line"/>
      <point x="90" y="684" type="line"/>
      <point x="90" y="67" type="line"/>
      <point x="30" y="67" type="line"/>
      <point x="30" y="0" type="line"/>
      <point x="159" y="0" type="line"/>
      <point x="177" y="67" type="line"/>
      <point x="190" y="55"/>
      <point x="226" y="-9"/>
      <point x="338" y="-9" type="curve" smooth="yes"/>
      <point x="479" y="-9"/>
      <point x="577" y="116"/>
      <point x="577" y="255" type="curve" smooth="yes"/>
      <point x="577" y="411"/>
      <point x="483" y="510"/>
      <point x="330" y="510" type="curve" smooth="yes"/>
      <point x="243" y="510"/>
      <point x="196" y="484"/>
      <point x="177" y="472" type="curve"/>
      <point x="177" y="750" type="line"/>
    </contour>
    <contour>
      <point x="482" y="138"/>
      <point x="417" y="67"/>
      <point x="316" y="67" type="curve" smooth="yes"/>
      <point x="224" y="67"/>
      <point x="168" y="125"/>
      <point x="168" y="253" type="curve"/>
      <point x="168" y="383"/>
      <point x="233" y="439"/>
      <point x="318" y="439" type="curve" smooth="yes"/>
      <point x="415" y="439"/>
      <point x="482" y="373"/>
      <point x="482" y="244" type="curve" smooth="yes"/>
    </contour>
  </outline>
</glyph>
<glyph name="c" format="1">
  <advance width="531"/>
  <unicode hex="0063"/>
  <outline>
    <contour>
      <point x="462" y="335" type="line"/>
      <point x="462" y="500" type="line"/>
      <point x="408" y="500" type="line"/>
      <point x="393" y="452" type="line"/>
      <point x="378" y="472"/>
      <point x="326" y="509"/>
      <point x="231" y="509" type="curve" smooth="yes"/>
      <point x="117" y="509"/>
      <point x="11" y="413"/>
      <point x="11" y="253" type="curve" smooth="yes"/>
      <point x="11" y="75"/>
      <point x="125" y="-14"/>
      <point x="257" y="-14" type="curve" smooth="yes"/>
      <point x="353" y="-14"/>
      <point x="433" y="37"/>
      <point x="475" y="88" type="curve"/>
      <point x="425" y="153" type="line"/>
      <point x="396" y="117"/>
      <point x="354" y="71"/>
      <point x="261" y="71" type="curve" smooth="yes"/>
      <point x="161" y="71"/>
      <point x="105" y="131"/>
      <point x="105" y="251" type="curve" smooth="yes"/>
      <point x="105" y="374"/>
      <point x="180" y="440"/>
      <point x="270" y="440" type="curve" smooth="yes"/>
      <point x="323" y="440"/>
      <point x="381" y="383"/>
      <point x="382" y="335" type="curve"/>
    </contour>
  </outline>
</glyph>
<glyph name="e" format="1">
  <advance width="542"/>
  <unicode hex="0065"/>
  <outline>
    <contour>
      <point x="436" y="131" type="line"/>
      <point x="386" y="86"/>
      <point x="341" y="48"/>
      <point x="276" y="48" type="curve" smooth="yes"/>
      <point x="175" y="48"/>
      <point x="110" y="144"/>
      <point x="110" y="219" type="curve"/>
      <point x="475" y="219" type="line"/>
      <point x="495" y="276"/>
      <point x="484" y="334"/>
      <point x="473" y="369" type="curve" smooth="yes"/>
      <point x="446" y="453"/>
      <point x="362" y="514"/>
      <point x="251" y="514" type="curve" smooth="yes"/>
      <point x="111" y="514"/>
      <point x="5" y="397"/>
      <point x="5" y="253" type="curve" smooth="yes"/>
      <point x="5" y="84"/>
      <point x="130" y="-15"/>
      <point x="269" y="-15" type="curve" smooth="yes"/>
      <point x="433" y="-15"/>
      <point x="461" y="45"/>
      <point x="486" y="69" type="curve"/>
    </contour>
    <contour>
      <point x="350" y="452"/>
      <point x="394" y="365"/>
      <point x="394" y="306" type="curve"/>
      <point x="113" y="306" type="line"/>
      <point x="113" y="374"/>
      <point x="161" y="452"/>
      <point x="250" y="452" type="curve" smooth="yes"/>
    </contour>
    <contour>
      <point x="397" y="56" type="line"/>
      <point x="476" y="56" type="line"/>
      <point x="476" y="149" type="line"/>
      <point x="397" y="149" type="line"/>
    </contour>
  </outline>
</glyph>
<glyph name="h" format="1">
  <advance width="650"/>
  <unicode hex="0068"/>
  <outline>
    <contour>
      <point x="287" y="67" type="line"/>
      <point x="200" y="67" type="line"/>
      <point x="200" y="300" type="line" smooth="yes"/>
      <point x="200" y="359"/>
      <point x="247" y="438"/>
      <point x="339" y="438" type="curve" smooth="yes"/>
      <point x="408" y="438"/>
      <point x="453" y="404"/>
      <point x="453" y="314" type="curve" smooth="yes"/>
      <point x="453" y="67" type="line"/>
      <point x="380" y="67" type="line"/>
      <point x="380" y="0" type="line"/>
      <point x="632" y="0" type="line"/>
      <point x="632" y="67" type="line"/>
      <point x="538" y="67" type="line"/>
      <point x="538" y="298" type="line" smooth="yes"/>
      <point x="538" y="403"/>
      <point x="518" y="518"/>
      <point x="363" y="518" type="curve" smooth="yes"/>
      <point x="300" y="518"/>
      <point x="240" y="485"/>
      <point x="206" y="438" type="curve"/>
      <point x="206" y="750" type="line"/>
      <point x="37" y="750" type="line"/>
      <point x="37" y="675" type="line"/>
      <point x="116" y="675" type="line"/>
      <point x="116" y="67" type="line"/>
      <point x="37" y="67" type="line"/>
      <point x="37" y="0" type="line"/>
      <point x="287" y="0" type="line"/>
    </contour>
  </outline>
</glyph>
<glyph name="i" format="1">
  <advance width="230"/>
  <unicode hex="0069"/>
  <outline>
    <contour>
      <point x="214" y="67" type="line"/>
      <point x="154" y="67" type="line"/>
      <point x="154" y="500" type="line"/>
      <point x="25" y="500" type="line"/>
      <point x="25" y="436" type="line"/>
      <point x="67" y="436" type="line"/>
      <point x="67" y="67" type="line"/>
      <point x="25" y="67" type="line"/>
      <point x="25" y="0" type="line"/>
      <point x="214" y="0" type="line"/>
    </contour>
    <contour>
      <point x="46" y="636"/>
      <point x="72" y="605"/>
      <point x="107" y="605" type="curve"/>
      <point x="148" y="605"/>
      <point x="170" y="631"/>
      <point x="170" y="663" type="curve"/>
      <point x="170" y="689"/>
      <point x="147" y="721"/>
      <point x="107" y="721" type="curve"/>
      <point x="68" y="721"/>
      <point x="46" y="689"/>
      <point x="46" y="663" type="curve"/>
    </contour>
  </outline>
</glyph>
<glyph name="k" format="1">
  <advance width="613"/>
  <unicode hex="006B"/>
  <outline>
    <contour>
      <point x="238" y="0" type="line"/>
      <point x="238" y="68" type="line"/>
      <point x="170" y="68" type="line"/>
      <point x="170" y="205" type="line"/>
      <point x="258" y="269" type="line"/>
      <point x="409" y="67" type="line"/>
      <point x="337" y="67" type="line"/>
      <point x="337" y="0" type="line"/>
      <point x="599" y="0" type="line"/>
      <point x="599" y="67" type="line"/>
      <point x="513" y="67" type="line"/>
      <point x="324" y="322" type="line"/>
      <point x="456" y="427" type="line"/>
      <point x="533" y="427" type="line"/>
      <point x="533" y="499" type="line"/>
      <point x="273" y="499" type="line"/>
      <point x="273" y="427" type="line"/>
      <point x="345" y="427" type="line"/>
      <point x="171" y="288" type="line"/>
      <point x="171" y="750" type="line"/>
      <point x="38" y="750" type="line"/>
      <point x="38" y="669" type="line"/>
      <point x="87" y="669" type="line"/>
      <point x="87" y="67" type="line"/>
      <point x="38" y="67" type="line"/>
      <point x="38" y="0" type="line"/>
    </contour>
  </outline>
</glyph>
<glyph name="l" format="1">
  <advance width="257"/>
  <unicode hex="006C"/>
  <outline>
    <contour>
      <point x="215" y="67" type="line"/>
      <point x="155" y="67" type="line"/>
      <point x="155" y="750" type="line"/>
      <point x="26" y="750" type="line"/>
      <point x="26" y="686" type="line"/>
      <point x="68" y="686" type="line"/>
      <point x="68" y="67" type="line"/>
      <point x="26" y="67" type="line"/>
      <point x="26" y="0" type="line"/>
      <point x="215" y="0" type="line"/>
    </contour>
  </outline>
</glyph>
<glyph name="m" format="1">
  <advance width="908"/>
  <unicode hex="006D"/>
  <outline>
    <contour>
      <point x="284" y="67" type="line"/>
      <point x="200" y="67" type="line"/>
      <point x="200" y="312" type="line" smooth="yes"/>
      <point x="200" y="371"/>
      <point x="239" y="431"/>
      <point x="331" y="431" type="curve" smooth="yes"/>
      <point x="395" y="431"/>
      <point x="424" y="384"/>
      <point x="424" y="289" type="curve" smooth="yes"/>
      <point x="424" y="67" type="line"/>
      <point x="351" y="67" type="line"/>
      <point x="351" y="0" type="line"/>
      <point x="590" y="0" type="line"/>
      <point x="590" y="67" type="line"/>
      <point x="509" y="67" type="line"/>
      <point x="509" y="315" type="line" smooth="yes"/>
      <point x="509" y="456"/>
      <point x="440" y="518"/>
      <point x="348" y="518" type="curve" smooth="yes"/>
      <point x="296" y="518"/>
      <point x="240" y="485"/>
      <point x="206" y="438" type="curve"/>
      <point x="183" y="500" type="line"/>
      <point x="36" y="500" type="line"/>
      <point x="36" y="425" type="line"/>
      <point x="116" y="425" type="line"/>
      <point x="116" y="67" type="line"/>
      <point x="36" y="67" type="line"/>
      <point x="36" y="0" type="line"/>
      <point x="284" y="0" type="line"/>
    </contour>
    <contour>
      <point x="546" y="518"/>
      <point x="497" y="460"/>
      <point x="481" y="414" type="curve"/>
      <point x="509" y="315" type="line"/>
      <point x="509" y="383"/>
      <point x="555" y="429"/>
      <point x="629" y="429" type="curve" smooth="yes"/>
      <point x="696" y="429"/>
      <point x="734" y="386"/>
      <point x="734" y="289" type="curve" smooth="yes"/>
      <point x="734" y="67" type="line"/>
      <point x="661" y="67" type="line"/>
      <point x="661" y="0" type="line"/>
      <point x="903" y="0" type="line"/>
      <point x="903" y="67" type="line"/>
      <point x="819" y="67" type="line"/>
      <point x="819" y="315" type="line" smooth="yes"/>
      <point x="819" y="456"/>
      <point x="739" y="518"/>
      <point x="640" y="518" type="curve" smooth="yes"/>
    </contour>
  </outline>
</glyph>
<glyph name="o" format="1">
  <advance width="557"/>
  <unicode hex="006F"/>
  <outline>
    <contour>
      <point x="432" y="-15"/>
      <point x="527" y="104"/>
      <point x="527" y="251" type="curve" smooth="yes"/>
      <point x="527" y="399"/>
      <point x="432" y="519"/>
      <point x="273" y="519" type="curve" smooth="yes"/>
      <point x="114" y="519"/>
      <point x="20" y="399"/>
      <point x="20" y="251" type="curve" smooth="yes"/>
      <point x="20" y="104"/>
      <point x="114" y="-15"/>
      <point x="273" y="-15" type="curve" smooth="yes"/>
    </contour>
    <contour>
      <point x="157" y="58"/>
      <point x="114" y="159"/>
      <point x="114" y="248" type="curve" smooth="yes"/>
      <point x="114" y="336"/>
      <point x="157" y="447"/>
      <point x="273" y="447" type="curve" smooth="yes"/>
      <point x="389" y="447"/>
      <point x="435" y="336"/>
      <point x="435" y="248" type="curve" smooth="yes"/>
      <point x="435" y="159"/>
      <point x="389" y="58"/>
      <point x="273" y="58" type="curve" smooth="yes"/>
    </contour>
  </outline>
</glyph>
<glyph name="p" format="1">
  <advance width="638"/>
  <unicode hex="0070"/>
  <outline>
    <contour>
      <point x="526" y="127"/>
      <point x="465" y="67"/>
      <point x="375" y="67" type="curve" smooth="yes"/>
      <point x="280" y="67"/>
      <point x="247" y="132"/>
      <point x="247" y="239" type="curve"/>
      <point x="241" y="364"/>
      <point x="266" y="434"/>
      <point x="376" y="434" type="curve" smooth="yes"/>
      <point x="477" y="434"/>
      <point x="526" y="342"/>
      <point x="526" y="247" type="curve" smooth="yes"/>
    </contour>
    <contour>
      <point x="132" y="-204" type="line"/>
      <point x="324" y="-204" type="line"/>
      <point x="324" y="-143" type="line"/>
      <point x="270" y="-143" type="line"/>
      <point x="270" y="28" type="line"/>
      <point x="277" y="22"/>
      <point x="317" y="-11"/>
      <point x="400" y="-11" type="curve" smooth="yes"/>
      <point x="529" y="-11"/>
      <point x="628" y="87"/>
      <point x="628" y="246" type="curve" smooth="yes"/>
      <point x="628" y="388"/>
      <point x="548" y="508"/>
      <point x="392" y="508" type="curve" smooth="yes"/>
      <point x="332" y="508"/>
      <point x="290" y="479"/>
      <point x="271" y="465" type="curve"/>
      <point x="254" y="500" type="line"/>
      <point x="132" y="500" type="line"/>
      <point x="132" y="427" type="line"/>
      <point x="174" y="427" type="line"/>
      <point x="174" y="-143" type="line"/>
      <point x="132" y="-143" type="line"/>
    </contour>
    <contour>
      <point x="191" y="67" type="line"/>
      <point x="267" y="67" type="line"/>
      <point x="267" y="424" type="line"/>
      <point x="191" y="424" type="line"/>
    </contour>
  </outline>
</glyph>
<glyph name="r" format="1">
  <advance width="414"/>
  <unicode hex="0072"/>
  <outline>
    <contour>
      <point x="296" y="68" type="line"/>
      <point x="200" y="68" type="line"/>
      <point x="200" y="300" type="line" smooth="yes"/>
      <point x="200" y="359"/>
      <point x="247" y="428"/>
      <point x="339" y="428" type="curve"/>
      <point x="383" y="428" type="line"/>
      <point x="383" y="428"/>
      <point x="383" y="518"/>
      <point x="383" y="518" type="curve" smooth="yes"/>
      <point x="283" y="518"/>
      <point x="240" y="485"/>
      <point x="206" y="438" type="curve"/>
      <point x="183" y="500" type="line"/>
      <point x="25" y="500" type="line"/>
      <point x="25" y="425" type="line"/>
      <point x="116" y="425" type="line"/>
      <point x="116" y="68" type="line"/>
      <point x="25" y="68" type="line"/>
      <point x="25" y="0" type="line"/>
      <point x="296" y="0" type="line"/>
    </contour>
  </outline>
</glyph>
<glyph name="s" format="1">
  <advance width="508"/>
  <unicode hex="0073"/>
  <outline>
    <contour>
      <point x="78" y="0" type="line"/>
      <point x="87" y="61" type="line"/>
      <point x="111" y="23"/>
      <point x="196" y="-12"/>
      <point x="302" y="-12" type="curve" smooth="yes"/>
      <point x="399" y="-12"/>
      <point x="488" y="44"/>
      <point x="488" y="138" type="curve" smooth="yes"/>
      <point x="488" y="243"/>
      <point x="403" y="272"/>
      <point x="327" y="298" type="curve" smooth="yes"/>
      <point x="263" y="320"/>
      <point x="119" y="336"/>
      <point x="119" y="397" type="curve" smooth="yes"/>
      <point x="119" y="427"/>
      <point x="156" y="447"/>
      <point x="243" y="447" type="curve" smooth="yes"/>
      <point x="328" y="447"/>
      <point x="409" y="362"/>
      <point x="409" y="320" type="curve"/>
      <point x="475" y="320" type="line"/>
      <point x="475" y="500" type="line"/>
      <point x="416" y="500" type="line"/>
      <point x="408" y="434" type="line"/>
      <point x="387" y="477"/>
      <point x="288" y="512"/>
      <point x="195" y="512" type="curve" smooth="yes"/>
      <point x="124" y="512"/>
      <point x="19" y="469"/>
      <point x="19" y="367" type="curve" smooth="yes"/>
      <point x="19" y="273"/>
      <point x="114" y="269"/>
      <point x="182" y="245" type="curve" smooth="yes"/>
      <point x="254" y="220"/>
      <point x="385" y="192"/>
      <point x="385" y="147" type="curve" smooth="yes"/>
      <point x="385" y="82"/>
      <point x="324" y="59"/>
      <point x="255" y="59" type="curve" smooth="yes"/>
      <point x="179" y="59"/>
      <point x="87" y="127"/>
      <point x="87" y="180" type="curve"/>
      <point x="15" y="180" type="line"/>
      <point x="15" y="0" type="line"/>
    </contour>
  </outline>
</glyph>
<glyph name="t" format="1">
  <advance width="323"/>
  <unicode hex="0074"/>
  <outline>
    <contour>
      <point x="284" y="1"/>
      <point x="248" y="-18"/>
      <point x="205" y="-18" type="curve" smooth="yes"/>
      <point x="137" y="-18"/>
      <point x="97" y="29"/>
      <point x="97" y="147" type="curve" smooth="yes"/>
      <point x="97" y="425" type="line"/>
      <point x="33" y="425" type="line"/>
      <point x="33" y="500" type="line"/>
      <point x="97" y="500" type="line"/>
      <point x="97" y="612" type="line"/>
      <point x="182" y="651" type="line"/>
      <point x="182" y="500" type="line"/>
      <point x="284" y="500" type="line"/>
      <point x="284" y="425" type="line"/>
      <point x="182" y="425" type="line"/>
      <point x="182" y="119" type="line" smooth="yes"/>
      <point x="182" y="85"/>
      <point x="204" y="59"/>
      <point x="224" y="59" type="curve" smooth="yes"/>
      <point x="260" y="59"/>
      <point x="284" y="75"/>
      <point x="284" y="75" type="curve"/>
      <point x="284" y="1" type="line"/>
    </contour>
  </outline>
</glyph>
<glyph name="u" format="1">
  <advance width="631"/>
  <unicode hex="0075"/>
  <outline>
    <contour>
      <point x="539" y="500" type="line"/>
      <point x="365" y="500" type="line"/>
      <point x="365" y="432" type="line"/>
      <point x="449" y="432" type="line"/>
      <point x="449" y="200" type="line" smooth="yes"/>
      <point x="449" y="124"/>
      <point x="395" y="68"/>
      <point x="303" y="68" type="curve" smooth="yes"/>
      <point x="213" y="68"/>
      <point x="201" y="136"/>
      <point x="201" y="170" type="curve" smooth="yes"/>
      <point x="201" y="433" type="line"/>
      <point x="201" y="433" type="line"/>
      <point x="201" y="500" type="line"/>
      <point x="27" y="500" type="line"/>
      <point x="27" y="433" type="line"/>
      <point x="104" y="433" type="line"/>
      <point x="104" y="202" type="line" smooth="yes"/>
      <point x="104" y="73"/>
      <point x="162" y="-18"/>
      <point x="279" y="-18" type="curve" smooth="yes"/>
      <point x="342" y="-18"/>
      <point x="411" y="22"/>
      <point x="445" y="69" type="curve"/>
      <point x="472" y="0" type="line"/>
      <point x="610" y="0" type="line"/>
      <point x="610" y="69" type="line"/>
      <point x="539" y="69" type="line"/>
    </contour>
  </outline>
</glyph>
<glyph name="v" format="1">
  <advance width="613"/>
  <unicode hex="0076"/>
  <outline>
    <contour>
      <point x="326" y="98" type="line"/>
      <point x="324" y="119"/>
      <point x="263" y="229"/>
      <point x="250" y="267" type="curve"/>
      <point x="184" y="428" type="line"/>
      <point x="280" y="427" type="line"/>
      <point x="280" y="500" type="line"/>
      <point x="0" y="500" type="line"/>
      <point x="0" y="427" type="line"/>
      <point x="75" y="427" type="line"/>
      <point x="281" y="0" type="line"/>
      <point x="360" y="0" type="line"/>
      <point x="553" y="427" type="line"/>
      <point x="613" y="427" type="line"/>
      <point x="613" y="500" type="line"/>
      <point x="376" y="500" type="line"/>
      <point x="376" y="427" type="line"/>
      <point x="453" y="427" type="line"/>
      <point x="387" y="272" type="line" smooth="yes"/>
      <point x="370" y="233"/>
      <point x="331" y="119"/>
      <point x="330" y="98" type="curve"/>
    </contour>
  </outline>
</glyph>
<glyph name="Adieresis" format="1">
  <advance width="823"/>
  <unicode hex="00C4"/>
  <outline>
    <contour>
      <point x="207" y="762"/>
      <point x="246" y="723"/>
      <point x="295" y="723" type="curve"/>
      <point x="345" y="723"/>
      <point x="386" y="762"/>
      <point x="386" y="812" type="curve"/>
      <point x="386" y="861"/>
      <point x="345" y="902"/>
      <point x="295" y="902" type="curve"/>
      <point x="246" y="902"/>
      <point x="207" y="861"/>
      <point x="207" y="812" type="curve"/>
    </contour>
    <contour>
      <point x="415" y="762"/>
      <point x="454" y="723"/>
      <point x="503" y="723" type="curve"/>
      <point x="553" y="723"/>
      <point x="594" y="762"/>
      <point x="594" y="812" type="curve"/>
      <point x="594" y="861"/>
      <point x="553" y="902"/>
      <point x="503" y="902" type="curve"/>
      <point x="454" y="902"/>
      <point x="415" y="861"/>
      <point x="415" y="812" type="curve"/>
    </contour>
    <component base="A" xOffset="41"/>
  </outline>
</glyph>
<glyph name="Aring" format="1">
  <advance width="835"/>
  <unicode hex="00C5"/>
  <outline>
    <contour>
      <point x="378" y="535" type="line"/>
      <point x="444" y="319" type="line"/>
      <point x="313" y="319" type="line"/>
    </contour>
    <contour>
      <point x="808" y="131" type="line"/>
      <point x="738" y="131" type="line"/>
      <point x="561" y="699" type="line"/>
      <point x="177" y="699" type="line"/>
      <point x="177" y="570" type="line"/>
      <point x="218" y="570" type="line"/>
      <point x="83" y="131" type="line"/>
      <point x="15" y="131" type="line"/>
      <point x="15" y="0" type="line"/>
      <point x="333" y="0" type="line"/>
      <point x="333" y="131" type="line"/>
      <point x="255" y="131" type="line"/>
      <point x="276" y="199" type="line"/>
      <point x="481" y="199" type="line"/>
      <point x="502" y="131" type="line"/>
      <point x="407" y="131" type="line"/>
      <point x="407" y="0" type="line"/>
      <point x="808" y="0" type="line"/>
    </contour>
    <contour>
      <point x="391" y="724" type="curve"/>
      <point x="445" y="724"/>
      <point x="490" y="767"/>
      <point x="490" y="821" type="curve"/>
      <point x="490" y="875"/>
      <point x="445" y="920"/>
      <point x="391" y="920" type="curve"/>
      <point x="337" y="920"/>
      <point x="294" y="875"/>
      <point x="294" y="821" type="curve"/>
      <point x="294" y="767"/>
      <point x="337" y="724"/>
    </contour>
    <contour>
      <point x="391" y="782" type="curve"/>
      <point x="369" y="782"/>
      <point x="352" y="800"/>
      <point x="352" y="822" type="curve"/>
      <point x="352" y="844"/>
      <point x="369" y="861"/>
      <point x="391" y="861" type="curve"/>
      <point x="413" y="861"/>
      <point x="431" y="844"/>
      <point x="431" y="822" type="curve"/>
      <point x="431" y="800"/>
      <point x="413" y="782"/>
    </contour>
  </outline>
</glyph>
<glyph name="aring" format="1">
  <advance width="611"/>
  <unicode hex="00E5"/>
  <outline>
    <contour>
      <point x="188" y="599"/>
      <point x="231" y="556"/>
      <point x="285" y="556" type="curve"/>
      <point x="339" y="556"/>
      <point x="384" y="599"/>
      <point x="384" y="653" type="curve"/>
      <point x="384" y="707"/>
      <point x="339" y="752"/>
      <point x="285" y="752" type="curve"/>
      <point x="231" y="752"/>
      <point x="188" y="707"/>
      <point x="188" y="653" type="curve"/>
    </contour>
    <contour>
      <point x="325" y="632"/>
      <point x="307" y="614"/>
      <point x="285" y="614" type="curve"/>
      <point x="263" y="614"/>
      <point x="246" y="632"/>
      <point x="246" y="654" type="curve"/>
      <point x="246" y="676"/>
      <point x="263" y="693"/>
      <point x="285" y="693" type="curve"/>
      <point x="307" y="693"/>
      <point x="325" y="676"/>
      <point x="325" y="654" type="curve"/>
    </contour>
    <component base="a"/>
  </outline>
</glyph>
<glyph name="oslash" format="1">
  <advance width="574"/>
  <unicode hex="00F8"/>
  <outline>
    <contour>
      <point x="98" y="-26" type="line"/>
      <point x="543" y="519" type="line"/>
      <point x="465" y="519" type="line"/>
      <point x="19" y="-26" type="line"/>
    </contour>
    <component base="o"/>
  </outline>
</glyph>
